<svg xmlns:x="&amp;ns_extend;" xmlns:i="&amp;ns_ai;" xmlns:graph="&amp;ns_graphs;" xmlns="http://www.w3.org/2000/svg"
      xmlns:xlink="http://www.w3.org/1999/xlink" version="1.1" id="Layer_1" x="0px" y="0px"
      viewBox="0 0 315 200.6359711" style="enable-background:new 0 0 315 200.6359711;" xml:space="preserve">
      <style type="text/css">
            .st0 {
                  fill: #30D68A;
            }
      </style>
      <metadata>
            <sfw>
                  <slices />
                  <sliceSourceBounds bottomLeftOrigin="true" height="200.6359711" width="315" x="-15.326087"
                        y="-243.548584" />
            </sfw>
      </metadata>
      <g id="color_index_0" fill="rgba(23, 24, 70, 1)" style="fill: rgb(255, 255, 255);">
            <path
                  d="M261.5326843,93.1174164v87.3428192c0,4.9152069-3.9630432,8.8782654-8.8782654,8.8782654h-67.7073822&#9;&#9;c-7.9777832-0.0513611-15.492218,4.5292816-19.2237396,11.2974701v-76.2770233L261.5326843,93.1174164z" />
            <path
                  d="M149.9995728,124.6163864v76.0195847c-3.7315369-6.7681885-11.2459564-11.3488312-19.2237396-11.2974701&#9;&#9;H63.0684433c-4.9152145,0-8.8784218-3.9630585-8.8784218-8.8782654V93.348938L149.9995728,124.6163864z" />
            <path
                  d="M157.5,0L3.8523092,50.1440163c-5.1364121,1.6763077-5.1364121,8.9426994,0,10.6190033L157.5,110.9070358&#9;&#9;l153.6477051-50.1440163c5.1363831-1.6763039,5.1363831-8.9426956,0-10.6190033L157.5,0z" />
      </g>
</svg>